# xmcd
#
# Track frame offsets: 
#        150
#        29622
#        47990
#        73340
#        99807
#        119790
#        152267
#        175440
#        197370
#
# Disc length: 3133 seconds
#
# Revision: 5
# Processed by: cddbd v1.5.1PL2 Copyright (c) Steve Scherf et al.
# Submitted via: ExactAudioCopy v0.95b4
#
DISCID=7a0c3b09
DTITLE=Ira Stein and Russel Walder - Transit
DYEAR=1986
DGENRE=New Age
TTITLE0=The Underground
TTITLE1=Engravings
TTITLE2=Marseille
TTITLE3=Foreign Correspondence
TTITLE4=Transit
TTITLE5=Lost Time
TTITLE6=Circe
TTITLE7=The Calling
TTITLE8=Suite For Dominique
EXTD=YEAR: 1986
EXTT0=
EXTT1=
EXTT2=
EXTT3=
EXTT4=
EXTT5=
EXTT6=
EXTT7=
EXTT8=
PLAYORDER=
